<svg width="24" height="40" fill="none" xmlns="http://www.w3.org/2000/svg"><path d="M14.264 39.264h-6.49c-1.083 0-1.965-.849-1.965-1.892V23.285H2.023c-1.084 0-1.966-.85-1.966-1.892v-6.036c0-1.043.882-1.892 1.966-1.892h3.786v-3.023c0-2.997.978-5.547 2.827-7.374 1.859-1.835 4.455-2.804 7.51-2.804l4.949.007c1.082.002 1.962.85 1.962 1.892v5.605c0 1.043-.881 1.892-1.965 1.892H17.76c-1.016 0-1.275.197-1.33.257-.092.1-.2.381-.2 1.16v2.388h4.612c.347 0 .683.082.972.237a1.89 1.89 0 011.012 1.655l-.003 6.036c0 1.043-.882 1.892-1.966 1.892H16.23v14.087c0 1.043-.882 1.892-1.966 1.892zm-6.08-2.287h5.67V22.261c0-.696.589-1.263 1.312-1.263h5.281l.003-5.247h-5.284c-.723 0-1.312-.566-1.312-1.263v-3.412c0-.893.094-1.909.795-2.672.846-.923 2.18-1.03 3.11-1.03h2.922V2.556l-4.537-.007c-4.91 0-7.96 3.024-7.96 7.892v4.046c0 .696-.588 1.263-1.312 1.263h-4.44v5.247h4.44c.724 0 1.312.567 1.312 1.263v14.716zM21.09 2.557z" fill="#C4C4C4"/></svg>