<svg width="40" height="41" fill="none" xmlns="http://www.w3.org/2000/svg"><path d="M28.828.95H10.7C4.8.95 0 5.75 0 11.65v18.128c0 5.9 4.8 10.7 10.7 10.7h18.129c5.9 0 10.7-4.8 10.7-10.7V11.649c0-5.9-4.8-10.7-10.7-10.7zm8.383 28.828c0 4.622-3.76 8.382-8.383 8.382H10.7c-4.622 0-8.383-3.76-8.383-8.382V11.649c0-4.622 3.76-8.382 8.383-8.382h18.129c4.622 0 8.382 3.76 8.382 8.382v18.129z" fill="#001E64"/><path d="M19.762 9.905c-5.96 0-10.808 4.849-10.808 10.809 0 5.96 4.848 10.808 10.808 10.808s10.809-4.849 10.809-10.808c0-5.96-4.849-10.809-10.809-10.809zm0 19.3c-4.681 0-8.49-3.81-8.49-8.491 0-4.682 3.809-8.491 8.49-8.491 4.682 0 8.491 3.809 8.491 8.49 0 4.683-3.809 8.491-8.49 8.491zM30.83 6.067a3.197 3.197 0 00-3.193 3.193 3.197 3.197 0 003.193 3.194 3.198 3.198 0 003.195-3.194 3.197 3.197 0 00-3.195-3.193zm0 4.07a.878.878 0 010-1.753.877.877 0 010 1.753z" fill="#001E64"/></svg>