<svg width="41" height="32" fill="none" xmlns="http://www.w3.org/2000/svg"><path d="M40.198.802A1.436 1.436 0 0038.58.354L1.887 13.804a2.078 2.078 0 00-1.343 1.71 2.08 2.08 0 00.881 1.975l5.245 3.632a1.63 1.63 0 001.706.098l11.377-6.085-8.867 6.716a1.696 1.696 0 00-.665 1.345v6.22c0 .643.347 1.23.905 1.536a1.7 1.7 0 001.767-.08l3.984-2.682 3.919 2.71a2.045 2.045 0 001.582.321 2.086 2.086 0 001.336-.946l16.6-27.767a1.49 1.49 0 00-.116-1.705zM21.873 28.765l-4.058-2.806a1.635 1.635 0 00-1.847-.012l-3.402 2.288v-4.689l15.657-11.859c.7-.53.875-1.494.41-2.242a1.63 1.63 0 00-2.172-.589L7.65 18.92l-4.436-3.072L37.002 3.46 21.873 28.766z" fill="#C4C4C4"/></svg>