<svg width="41" height="40" fill="none" xmlns="http://www.w3.org/2000/svg"><path d="M34.443 5.955A19.042 19.042 0 0020.888.341h-.002c-2.532 0-5 .49-7.335 1.458a19.074 19.074 0 00-6.218 4.156A19.043 19.043 0 001.72 19.51c0 3.053.737 6.088 2.133 8.791L.63 37.506a1.762 1.762 0 00.42 1.842 1.76 1.76 0 001.842.42l9.205-3.222a19.226 19.226 0 008.791 2.133c5.12 0 9.934-1.994 13.555-5.614a19.044 19.044 0 005.614-13.555c0-5.12-1.994-9.934-5.614-13.555zm-1.64 25.47a16.739 16.739 0 01-11.915 4.936 16.89 16.89 0 01-7.91-1.97 1.785 1.785 0 00-1.424-.11L3.19 37.206l2.927-8.363a1.786 1.786 0 00-.11-1.424 16.893 16.893 0 01-1.97-7.91c0-4.501 1.752-8.733 4.935-11.915a16.742 16.742 0 0111.914-4.936h.001c4.501 0 8.733 1.753 11.915 4.936A16.739 16.739 0 0137.74 19.51a16.74 16.74 0 01-4.936 11.915z" fill="#C4C4C4"/><path d="M28.012 21.222a2.264 2.264 0 00-3.198 0l-.965.965a14.038 14.038 0 01-5.638-5.638l.965-.965a2.264 2.264 0 000-3.198l-2.6-2.6a2.264 2.264 0 00-3.198 0l-2.079 2.08c-1.19 1.19-1.25 3.238-.167 5.765.94 2.194 2.66 4.606 4.845 6.79 2.184 2.184 4.596 3.905 6.79 4.846 1.2.514 2.293.77 3.236.77 1.043 0 1.904-.313 2.53-.938l2.078-2.08v.001c.428-.427.663-.995.663-1.6 0-.604-.235-1.172-.663-1.599l-2.599-2.599zm-1.12 6.238c-.34.34-1.384.459-3.212-.324-1.93-.827-4.083-2.374-6.064-4.354-1.98-1.981-3.526-4.134-4.353-6.064-.784-1.827-.664-2.873-.325-3.213l2.04-2.039 2.519 2.52-1.208 1.207a1.769 1.769 0 00-.327 2.06 16.355 16.355 0 007.183 7.183 1.77 1.77 0 002.06-.327l1.208-1.207 2.52 2.519-2.04 2.039z" fill="#C4C4C4"/></svg>